<?xml version="1.0" encoding="UTF-8" standalone="no"?>
<!-- Created with Inkscape (http://www.inkscape.org/) -->

<svg xmlns:dc="http://purl.org/dc/elements/1.1/" xmlns:cc="http://creativecommons.org/ns#"
  xmlns:rdf="http://www.w3.org/1999/02/22-rdf-syntax-ns#" xmlns:svg="http://www.w3.org/2000/svg"
  xmlns="http://www.w3.org/2000/svg" xmlns:sodipodi="http://sodipodi.sourceforge.net/DTD/sodipodi-0.dtd"
  xmlns:inkscape="http://www.inkscape.org/namespaces/inkscape" version="1.1" id="svg2" xml:space="preserve"
  width="100%" height="100%" viewBox="0 0 435 400">
  <defs id="defs6" />
  <g id="g10" inkscape:groupmode="layer" inkscape:label="ink_ext_XXXXXX"
    transform="matrix(1.3333333,0,0,-1.3333333,-100,638.37333)">
    <path inkscape:connector-curvature="0" id="path24"
      style="fill:#157a61;fill-opacity:1;fill-rule:nonzero;stroke:none;stroke-width:0.1"
      d="m 168.963,436.907 c -9.423,-16.334 -12.727,-34.504 -10.621,-51.875 l 19.645,-11.352 c -5.903,17.592 -4.529,37.522 5.475,54.85 18.501,32.047 59.465,43.017 91.516,24.519 32.039,-18.502 43.017,-59.472 24.522,-91.515 -10.004,-17.322 -26.583,-28.489 -44.761,-32.168 l 19.646,-11.343 c 16.101,6.868 30.19,18.819 39.621,35.137 23.118,40.058 9.393,91.266 -30.654,114.385 -40.055,23.135 -91.265,9.41 -114.389,-30.638" />
    <path inkscape:connector-curvature="  0" id="path26"
      style="fill:#157a61;fill-opacity:1;fill-rule:nonzero;stroke:none;stroke-width:0.1"
      d="m 124.25,191.993 c 40.054,-23.136 91.269,-9.412 114.395,30.642 9.423,16.318 12.72,34.5 10.615,51.884 l -19.647,11.342 c 5.904,-17.579 4.531,-37.524 -5.474,-54.859 -18.497,-32.038 -59.472,-43.016 -91.522,-24.515 -32.039,18.502 -43.0115,59.465 -24.516,91.515 10.011,17.322 26.594,28.488 44.772,32.159 l -19.645,11.352 C 117.126,334.653 103.026,322.706 93.607,306.375 70.4766,266.322 84.2074,215.107 124.25,191.993" />
    <path inkscape:connector-curvature="0" id="path28"
      style="fill:#157a61;fill-opacity:1;fill-rule:nonzero;stroke:none;stroke-width:0.1"
      d="m 374.879,231.002 c -18.497,-32.05 -59.472,-43.023 -91.517,-24.533 -24.34,14.066 -36.527,41.099 -32.854,67.328 l -15.403,8.899 c -7.751,-34.765 7.416,-71.985 39.883,-90.726 40.055,-23.12 91.27,-9.4 114.39,30.653 18.401,31.857 13.472,70.77 -9.459,97.005 l -8.99,-15.555 c 15.186,-20.775 17.638,-49.361 3.95,-73.071 m -46.686,99.523 8.814,15.26 c -27.221,6.762 -56.186,-0.675 -76.781,-19.591 l 15.398,-8.881 c 14.832,11.563 33.985,16.395 52.569,13.212" />
    <path inkscape:connector-curvature="0" id="path30"
      style="fill:#fcd006;fill-opacity:1;fill-rule:nonzero;stroke:none;stroke-width:0.1"
      d="m 250.551,298.909 -2.483,1.44 -137.039,79.134 c 8.749,-10.265 11.965,-22.351 7.711,-29.588 l 131.574,-75.989 c 0.599,4.151 1.603,8.276 3.005,12.337 0.276,0.783 0.558,1.561 0.863,2.344 0.176,0.745 0.283,1.52 0.283,2.318 0,3.254 -1.539,6.147 -3.914,8.004" />
    <path inkscape:connector-curvature="0" id="path32"
      style="fill:#fcd006;fill-opacity:1;fill-rule:nonzero;stroke:none;stroke-width:0.1"
      d="m 94.048,422.17 c -5.6863,-10.07 0.0997,-22.718 9.266,-32.424 l 148.111,-85.536 0.539,-0.313 c 1.401,-0.737 3.01,-1.162 4.718,-1.162 3.075,0 5.826,1.373 7.699,3.538 0.181,0.235 0.37,0.472 0.557,0.707 3.204,3.89 6.79,7.344 10.656,10.345 L 94.048,422.17" />
  </g>

</svg>